<?xml version="1.0" encoding="UTF-8" standalone="no"?><!DOCTYPE svg PUBLIC "-//W3C//DTD SVG 1.1//EN" "http://www.w3.org/Graphics/SVG/1.1/DTD/svg11.dtd"><svg width="100%" height="100%" viewBox="0 0 383 300" version="1.1" xmlns="http://www.w3.org/2000/svg" xmlns:xlink="http://www.w3.org/1999/xlink" xml:space="preserve" xmlns:serif="http://www.serif.com/" style="fill-rule:evenodd;clip-rule:evenodd;stroke-linejoin:round;stroke-miterlimit:2;"><g><path d="M209.924,18.749l0,11.251c42.807,8.689 75.059,46.524 75.059,91.875l-0,11.016c-0,27.597 10.145,54.14 28.44,74.765l4.34,4.864c4.926,5.565 6.158,13.417 3.108,20.156c-3.049,6.739 -9.735,11.073 -17.123,11.073l-225.178,0c-7.388,0 -14.09,-4.334 -17.118,-11.073c-3.026,-6.739 -1.816,-14.591 3.094,-20.156l4.349,-4.864c18.318,-20.625 28.44,-47.168 28.44,-74.765l0,-11.016c0,-45.351 31.724,-83.186 75.059,-91.875l0,-11.251c0,-10.353 8.386,-18.749 18.764,-18.749c10.38,0 18.766,8.396 18.766,18.749Zm-18.766,281.252c-9.968,0 -19.526,-3.925 -26.563,-10.957c-7.037,-7.031 -10.965,-17.109 -10.965,-26.543l75.058,0c0,9.434 -3.928,19.512 -10.965,26.543c-7.037,7.032 -17.123,10.957 -26.565,10.957Z" style="fill:#393bac;fill-rule:nonzero;"/><g><path d="M77.405,140.625c-0,-7.114 -5.781,-12.89 -12.902,-12.89l-51.601,-0c-7.121,-0 -12.902,5.776 -12.902,12.89c0,7.115 5.781,12.891 12.902,12.891l51.601,0c7.121,0 12.902,-5.776 12.902,-12.891Z" style="fill:#393bac;"/><path d="M78.084,83.789c3.56,-6.161 1.444,-14.052 -4.723,-17.609l-44.688,-25.781c-6.167,-3.558 -14.064,-1.443 -17.623,4.718c-3.561,6.162 -1.444,14.052 4.721,17.61l44.69,25.78c6.166,3.557 14.063,1.444 17.623,-4.718Z" style="fill:#393bac;"/><path d="M382.333,140.625c-0,-7.114 -5.781,-12.89 -12.902,-12.89l-51.601,-0c-7.121,-0 -12.902,5.776 -12.902,12.89c0,7.115 5.781,12.891 12.902,12.891l51.601,0c7.121,0 12.902,-5.776 12.902,-12.891Z" style="fill:#393bac;"/><path d="M371.283,45.117c-3.559,-6.161 -11.457,-8.276 -17.623,-4.718l-44.688,25.781c-6.167,3.557 -8.284,11.448 -4.723,17.609c3.56,6.162 11.456,8.275 17.623,4.718l44.69,-25.78c6.165,-3.558 8.282,-11.448 4.721,-17.61Z" style="fill:#393bac;"/></g></g></svg>