<?xml version="1.0" encoding="UTF-8" standalone="no"?><!DOCTYPE svg PUBLIC "-//W3C//DTD SVG 1.1//EN" "http://www.w3.org/Graphics/SVG/1.1/DTD/svg11.dtd"><svg width="100%" height="100%" viewBox="0 0 383 300" version="1.1" xmlns="http://www.w3.org/2000/svg" xmlns:xlink="http://www.w3.org/1999/xlink" xml:space="preserve" xmlns:serif="http://www.serif.com/" style="fill-rule:evenodd;clip-rule:evenodd;stroke-linejoin:round;stroke-miterlimit:2;"><path d="M209.777,18.749l0,11.251c42.852,8.689 75.139,46.524 75.139,91.875l0,11.016c0,27.597 10.156,54.14 28.471,74.765l4.344,4.864c4.93,5.565 6.164,13.417 3.11,20.156c-3.052,6.739 -9.744,11.073 -17.141,11.073l-225.416,0c-7.396,0 -14.105,-4.334 -17.135,-11.073c-3.03,-6.739 -1.818,-14.591 3.096,-20.156l4.354,-4.864c18.338,-20.625 28.47,-47.168 28.47,-74.765l0,-11.016c0,-45.351 31.758,-83.186 75.139,-91.875l0,-11.251c0,-10.353 8.395,-18.749 18.784,-18.749c10.391,0 18.785,8.396 18.785,18.749Zm-18.785,281.252c-9.979,0 -19.547,-3.925 -26.592,-10.957c-7.044,-7.031 -10.977,-17.109 -10.977,-26.543l75.138,0c0,9.434 -3.932,19.512 -10.977,26.543c-7.044,7.032 -17.14,10.957 -26.592,10.957Z" style="fill:#808080;fill-rule:nonzero;"/></svg>