<?xml version="1.0" encoding="UTF-8" standalone="no"?><!DOCTYPE svg PUBLIC "-//W3C//DTD SVG 1.1//EN" "http://www.w3.org/Graphics/SVG/1.1/DTD/svg11.dtd"><svg width="100%" height="100%" viewBox="0 0 900 450" version="1.1" xmlns="http://www.w3.org/2000/svg" xmlns:xlink="http://www.w3.org/1999/xlink" xml:space="preserve" xmlns:serif="http://www.serif.com/" style="fill-rule:evenodd;clip-rule:evenodd;stroke-linejoin:round;stroke-miterlimit:2;"><g><g><g><path d="M818.475,247.125c-5.712,0 -10.35,4.638 -10.35,10.35l0,1.8c0,5.712 4.638,10.35 10.35,10.35l37.05,0c5.712,0 10.35,-4.638 10.35,-10.35l0,-1.8c0,-5.712 -4.638,-10.35 -10.35,-10.35l-37.05,0Z" style="fill:#ffcd37;"/><path d="M818.475,247.125c-5.712,0 -10.35,4.638 -10.35,10.35l0,1.8c0,5.712 4.638,10.35 10.35,10.35l13.8,0c5.712,0 10.35,-4.638 10.35,-10.35l0,-1.8c0,-5.712 -4.638,-10.35 -10.35,-10.35l-13.8,0Z" style="fill:#fff;fill-opacity:0.3;"/></g><g><path d="M784.407,351.872c-4.039,-4.039 -10.598,-4.039 -14.637,0l-1.273,1.273c-4.039,4.039 -4.039,10.598 0,14.637l26.199,26.198c4.039,4.04 10.597,4.04 14.637,0l1.272,-1.272c4.04,-4.04 4.04,-10.598 0,-14.637l-26.198,-26.199Z" style="fill:#ffcd37;"/><path d="M784.407,351.872c-4.039,-4.039 -10.598,-4.039 -14.637,0l-1.273,1.273c-4.039,4.039 -4.039,10.598 0,14.637l9.758,9.758c4.039,4.039 10.598,4.039 14.637,0l1.273,-1.273c4.039,-4.039 4.039,-10.598 0,-14.637l-9.758,-9.758Z" style="fill:#fff;fill-opacity:0.3;"/></g><g><path d="M686.25,401.85c0,-5.712 -4.638,-10.35 -10.35,-10.35l-1.8,-0c-5.712,-0 -10.35,4.638 -10.35,10.35l0,37.05c0,5.712 4.638,10.35 10.35,10.35l1.8,0c5.712,0 10.35,-4.638 10.35,-10.35l0,-37.05Z" style="fill:#ffcd37;"/><path d="M686.25,401.85c0,-5.712 -4.638,-10.35 -10.35,-10.35l-1.8,-0c-5.712,-0 -10.35,4.638 -10.35,10.35l0,13.8c0,5.712 4.638,10.35 10.35,10.35l1.8,-0c5.712,-0 10.35,-4.638 10.35,-10.35l0,-13.8Z" style="fill:#fff;fill-opacity:0.3;"/></g><g><path d="M581.503,367.782c4.039,-4.039 4.039,-10.598 -0,-14.637l-1.273,-1.273c-4.039,-4.039 -10.598,-4.039 -14.637,0l-26.198,26.199c-4.04,4.039 -4.04,10.597 -0,14.637l1.272,1.272c4.04,4.04 10.598,4.04 14.637,0l26.199,-26.198Z" style="fill:#ffcd37;"/><path d="M581.503,367.782c4.039,-4.039 4.039,-10.598 -0,-14.637l-1.273,-1.273c-4.039,-4.039 -10.598,-4.039 -14.637,0l-9.758,9.758c-4.039,4.039 -4.039,10.598 -0,14.637l1.273,1.273c4.039,4.039 10.598,4.039 14.637,0l9.758,-9.758Z" style="fill:#fff;fill-opacity:0.3;"/></g><g><path d="M531.525,269.625c5.712,0 10.35,-4.638 10.35,-10.35l0,-1.8c0,-5.712 -4.638,-10.35 -10.35,-10.35l-37.05,0c-5.712,0 -10.35,4.638 -10.35,10.35l0,1.8c0,5.712 4.638,10.35 10.35,10.35l37.05,0Z" style="fill:#ffcd37;"/><path d="M531.525,269.625c5.712,0 10.35,-4.638 10.35,-10.35l0,-1.8c0,-5.712 -4.638,-10.35 -10.35,-10.35l-13.8,0c-5.712,0 -10.35,4.638 -10.35,10.35l0,1.8c0,5.712 4.638,10.35 10.35,10.35l13.8,0Z" style="fill:#fff;fill-opacity:0.3;"/></g></g><g><circle cx="675" cy="258.375" r="111" style="fill:#ffab37;"/><path d="M690.618,368.282c-5.106,0.721 -10.319,1.093 -15.618,1.093c-61.263,-0 -111,-49.737 -111,-111c0,-61.263 49.737,-111 111,-111c5.299,0 10.512,0.372 15.618,1.093c42.513,16.408 72.882,59.449 72.882,109.907c0,50.458 -30.369,93.499 -72.882,109.907Z" style="fill:#ffcd37;"/><rect x="669.375" y="0" width="11.25" height="66" style="fill:#697276;"/><path d="M645,92.25c0,0 9.049,-14.293 13.09,-22.413c1.182,-2.375 3.359,-3.837 5.713,-3.837l22.394,0c2.354,0 4.531,1.462 5.713,3.837c4.041,8.12 13.09,22.413 13.09,22.413l-60,0Z" style="fill:#858f93;"/><path d="M724.5,135.75l0,-36.27c0,-5.646 -5.693,-10.23 -12.705,-10.23l-73.59,0c-7.012,0 -12.705,4.584 -12.705,10.23l0,36.27l99,0Z" style="fill:#4f575b;"/><path d="M702,135.75l0,-36.27c0,-5.646 -4.399,-10.23 -9.817,-10.23l-56.866,0c-5.418,0 -9.817,4.584 -9.817,10.23l0,36.27l76.5,0Z" style="fill:#697276;"/><path d="M735.75,145.533c0,-5.813 -4.72,-10.533 -10.533,-10.533l-100.434,-0c-5.813,-0 -10.533,4.72 -10.533,10.533l0,2.934c0,5.813 4.72,10.533 10.533,10.533l100.434,0c5.813,0 10.533,-4.72 10.533,-10.533l0,-2.934Z" style="fill:#353a3d;"/><path d="M711.75,145.533c0,-5.813 -4.72,-10.533 -10.533,-10.533l-76.434,-0c-5.813,-0 -10.533,4.72 -10.533,10.533l0,2.934c0,5.813 4.72,10.533 10.533,10.533l76.434,0c5.813,0 10.533,-4.72 10.533,-10.533l0,-2.934Z" style="fill:#4f575b;"/></g></g><g><circle cx="225" cy="258.375" r="111" style="fill:#a3abad;"/><path d="M240.618,368.282c-5.106,0.721 -10.319,1.093 -15.618,1.093c-61.263,-0 -111,-49.737 -111,-111c0,-61.263 49.737,-111 111,-111c5.299,0 10.512,0.372 15.618,1.093c42.513,16.408 72.882,59.449 72.882,109.907c-0,50.458 -30.369,93.499 -72.882,109.907Z" style="fill:#c1c6c8;"/><rect x="219.375" y="0" width="11.25" height="66" style="fill:#697276;"/><path d="M195,92.25c-0,0 9.049,-14.293 13.09,-22.413c1.182,-2.375 3.359,-3.837 5.713,-3.837l22.394,0c2.354,0 4.531,1.462 5.713,3.837c4.041,8.12 13.09,22.413 13.09,22.413l-60,0Z" style="fill:#858f93;"/><path d="M274.5,135.75l-0,-36.27c-0,-5.646 -5.693,-10.23 -12.705,-10.23l-73.59,0c-7.012,0 -12.705,4.584 -12.705,10.23l0,36.27l99,0Z" style="fill:#4f575b;"/><path d="M252,135.75l-0,-36.27c-0,-5.646 -4.399,-10.23 -9.817,-10.23l-56.866,0c-5.418,0 -9.817,4.584 -9.817,10.23l-0,36.27l76.5,0Z" style="fill:#697276;"/><path d="M285.75,145.533c-0,-5.813 -4.72,-10.533 -10.533,-10.533l-100.434,-0c-5.813,-0 -10.533,4.72 -10.533,10.533l-0,2.934c-0,5.813 4.72,10.533 10.533,10.533l100.434,0c5.813,0 10.533,-4.72 10.533,-10.533l-0,-2.934Z" style="fill:#353a3d;"/><path d="M261.75,145.533c-0,-5.813 -4.72,-10.533 -10.533,-10.533l-76.434,-0c-5.813,-0 -10.533,4.72 -10.533,10.533l-0,2.934c-0,5.813 4.72,10.533 10.533,10.533l76.434,0c5.813,0 10.533,-4.72 10.533,-10.533l-0,-2.934Z" style="fill:#4f575b;"/></g></svg>