<?xml version="1.0" encoding="UTF-8" standalone="no"?><!DOCTYPE svg PUBLIC "-//W3C//DTD SVG 1.1//EN" "http://www.w3.org/Graphics/SVG/1.1/DTD/svg11.dtd"><svg width="100%" height="100%" viewBox="0 0 400 400" version="1.1" xmlns="http://www.w3.org/2000/svg" xmlns:xlink="http://www.w3.org/1999/xlink" xml:space="preserve" xmlns:serif="http://www.serif.com/" style="fill-rule:evenodd;clip-rule:evenodd;stroke-linejoin:round;stroke-miterlimit:2;"><path d="M400,20c0,-11.038 -8.962,-20 -20,-20l-360,0c-11.038,0 -20,8.962 -20,20l0,360c0,11.038 8.962,20 20,20l360,0c11.038,0 20,-8.962 20,-20l0,-360Z" style="fill:#fff;"/><g><path id="path0" d="M206.456,67.983c-13.764,2.316 -26.274,11.857 -32.107,24.487c-0.736,1.594 -1.339,3.069 -1.339,3.279c0,0.209 -0.913,0.677 -2.029,1.04c-5.985,1.943 -6.09,2.164 -6.09,12.8c-0,11.567 0.204,11.938 8.468,15.405c5.067,2.126 5.365,1.818 3.726,-3.839c-8.606,-29.71 20.312,-56.839 49.305,-46.253c18.456,6.739 29.166,27.617 23.529,45.873c-2.045,6.627 -0.792,7.513 5.381,3.802c6.526,-3.922 6.64,-4.185 6.64,-15.234c0,-10.613 0.033,-10.545 -6.09,-12.549c-1.116,-0.365 -2.029,-0.836 -2.029,-1.045c-0,-0.887 -2.862,-6.472 -4.804,-9.375c-9.08,-13.58 -26.478,-21.096 -42.561,-18.391m0.435,10.251c-26.241,5.87 -35.316,37.757 -15.975,56.133c20.731,19.696 55.109,5.105 55.314,-23.476c0.15,-20.976 -19.317,-37.136 -39.339,-32.657m69.752,24.767c-9.208,2.476 -14.11,12.836 -10.084,21.309c0.587,1.236 4.482,7.426 8.654,13.755c4.172,6.329 7.459,11.508 7.306,11.507c-21.579,-0.066 -102.935,0.071 -102.935,0.174c-0,0.265 90.862,91.046 90.868,90.787c0.003,-0.139 0.047,-13.568 0.097,-29.843l0.091,-29.592l22.039,-0.204c22.701,-0.21 22.748,-0.212 26.05,-1.898c5.048,-2.576 8.656,-9.567 8.029,-15.56c-0.36,-3.453 -1.375,-5.577 -6.103,-12.768c-2.424,-3.687 -9.45,-14.428 -15.612,-23.868c-6.162,-9.44 -12.104,-18.152 -13.204,-19.36c-3.911,-4.295 -9.576,-5.95 -15.196,-4.439m-158.968,115.292c-28.633,42.958 -29.435,44.248 -29.92,48.144c-1.694,13.601 15.507,22.46 25.722,13.247c1.063,-0.959 9.014,-12.515 22.186,-32.247l20.528,-30.752l0.099,30.594l0.099,30.593l6.557,0.465c42.166,2.991 64.141,19.126 42.736,31.378c-1.169,0.669 -2.126,1.291 -2.126,1.381c-0,0.738 54.487,-0.089 56.516,-0.857c4.292,-1.626 7.847,-4.985 9.396,-8.882l0.631,-1.588l-61.252,-61.27c-33.689,-33.698 -61.613,-61.59 -62.052,-61.983c-0.796,-0.71 -0.914,-0.541 -29.12,41.777m21.89,64.374c-36.247,1.868 -56.975,13.447 -41.979,23.451c18.584,12.397 78.001,13.244 100.946,1.439c14.821,-7.624 7.317,-17.235 -17.342,-22.212c-12.536,-2.53 -26.75,-3.445 -41.625,-2.678m18.422,12.755c8.124,0.825 12.124,2.094 12.124,3.847c-0,4.924 -37.126,5.548 -41.285,0.693c-1.724,-2.012 2.904,-3.648 13.252,-4.687c3.129,-0.313 12.194,-0.23 15.909,0.147m-11.485,3.243c-1.286,0.949 -0.127,1.573 2.923,1.573c1.694,-0 2.851,-0.186 3.17,-0.51c0.836,-0.848 -0.672,-1.618 -3.17,-1.618c-1.279,0 -2.482,0.229 -2.923,0.555" style="fill:#040404;"/><path id="path1" d="M190.41,7.062c-0.957,0.08 -4.176,0.334 -7.153,0.563c-85.932,6.616 -158.728,73.433 -173.404,159.161c-19.786,115.577 65.736,221.348 182.78,226.058c98.459,3.961 184.526,-67.84 198.405,-165.521c16.388,-115.336 -71.944,-218.688 -188.255,-220.264c-5.849,-0.08 -11.416,-0.079 -12.373,0.003m27.752,42.476c87.556,11.792 146.18,91.513 130.735,177.785c-3.913,21.859 -14.746,46.674 -27.59,63.204c-0.534,0.687 -7.162,-5.86 -106.595,-105.314c-100.203,-100.222 -105.985,-106.079 -105.279,-106.627c20.916,-16.249 50.976,-27.528 79.237,-29.732c4.61,-0.358 25.311,0.121 29.492,0.684m-32.898,165.221c58.122,58.191 105.673,105.929 105.672,106.085c-0.002,0.155 -1.799,1.538 -3.994,3.073c-54.709,38.268 -127.534,36.402 -180.1,-4.612c-63.507,-49.551 -77.018,-140.175 -30.765,-206.357c1.531,-2.191 2.948,-3.986 3.148,-3.988c0.201,-0.001 47.918,47.608 106.039,105.799" style="fill:#fb433b;"/></g></svg>