<?xml version="1.0" encoding="UTF-8" standalone="no"?><!DOCTYPE svg PUBLIC "-//W3C//DTD SVG 1.1//EN" "http://www.w3.org/Graphics/SVG/1.1/DTD/svg11.dtd"><svg width="100%" height="100%" viewBox="0 0 344 300" version="1.1" xmlns="http://www.w3.org/2000/svg" xmlns:xlink="http://www.w3.org/1999/xlink" xml:space="preserve" xmlns:serif="http://www.serif.com/" style="fill-rule:evenodd;clip-rule:evenodd;stroke-linejoin:round;stroke-miterlimit:2;"><path d="M2.581,15.315c4.434,-9.355 13.86,-15.315 24.219,-15.315l289.439,0c10.385,0 19.765,5.96 24.186,15.315c4.49,9.356 3.083,20.425 -4.02,28.434l-122.006,149.716l-0,85.115c-0,8.103 -4.556,15.536 -11.859,19.152c-7.236,3.616 -15.945,2.88 -22.445,-2.009l-42.879,-32.143c-5.428,-4.019 -8.576,-10.38 -8.576,-17.144l0,-52.971l-122.581,-149.716c-6.558,-8.009 -7.911,-19.078 -3.476,-28.434l-0.002,-0Z" style="fill:#808080;fill-rule:nonzero;"/></svg>