<?xml version="1.0" encoding="UTF-8" standalone="no"?><!DOCTYPE svg PUBLIC "-//W3C//DTD SVG 1.1//EN" "http://www.w3.org/Graphics/SVG/1.1/DTD/svg11.dtd"><svg width="100%" height="100%" viewBox="0 0 383 300" version="1.1" xmlns="http://www.w3.org/2000/svg" xmlns:xlink="http://www.w3.org/1999/xlink" xml:space="preserve" xmlns:serif="http://www.serif.com/" style="fill-rule:evenodd;clip-rule:evenodd;stroke-linejoin:round;stroke-miterlimit:2;"><path d="M59.954,19.703c4.218,-8.981 13.183,-14.703 23.035,-14.703l217.058,0c9.877,0 18.799,5.722 23.004,14.703c4.27,8.982 2.932,19.609 -3.824,27.298l-89.804,86.595l-0,140.84c-0,7.779 -4.333,14.915 -11.279,18.387c-6.883,3.471 -15.166,2.765 -21.348,-1.929l-35.026,-30.859c-5.163,-3.858 -8.157,-9.965 -8.157,-16.459l0,-109.98l-90.351,-86.595c-6.237,-7.689 -7.524,-18.316 -3.306,-27.298l-0.002,0Z" style="fill:#808080;fill-rule:nonzero;"/></svg>