<?xml version="1.0" encoding="UTF-8" standalone="no"?><!DOCTYPE svg PUBLIC "-//W3C//DTD SVG 1.1//EN" "http://www.w3.org/Graphics/SVG/1.1/DTD/svg11.dtd"><svg width="100%" height="100%" viewBox="0 0 1667 1667" version="1.1" xmlns="http://www.w3.org/2000/svg" xmlns:xlink="http://www.w3.org/1999/xlink" xml:space="preserve" xmlns:serif="http://www.serif.com/" style="fill-rule:evenodd;clip-rule:evenodd;stroke-linejoin:round;stroke-miterlimit:2;"><g><path id="path0" d="M861.208,263.313c-59.429,10 -113.445,51.195 -138.629,105.729c-3.179,6.879 -5.779,13.254 -5.779,14.158c0,0.9 -3.946,2.921 -8.767,4.488c-25.837,8.395 -26.296,9.345 -26.296,55.27c0,49.946 0.884,51.542 36.567,66.517c21.879,9.179 23.167,7.85 16.088,-16.575c-37.159,-128.283 87.7,-245.421 212.887,-199.717c79.692,29.1 125.934,119.25 101.596,198.075c-8.833,28.613 -3.425,32.438 23.233,16.413c28.18,-16.934 28.671,-18.067 28.671,-65.775c0,-45.829 0.142,-45.529 -26.296,-54.184c-4.82,-1.579 -8.762,-3.612 -8.762,-4.512c-0,-3.829 -12.354,-27.946 -20.742,-40.483c-39.208,-58.63 -114.329,-91.088 -183.771,-79.405m1.88,44.263c-113.305,25.342 -152.488,163.025 -68.975,242.367c89.508,85.045 237.945,22.045 238.829,-101.363c0.654,-90.571 -83.4,-160.346 -169.854,-141.004m301.17,106.937c-39.754,10.688 -60.92,55.425 -43.537,92.005c2.537,5.337 19.354,32.066 37.367,59.395c18.012,27.325 32.208,49.688 31.545,49.684c-93.175,-0.284 -444.454,0.308 -444.454,0.75c0,1.146 392.329,393.117 392.354,392c0.013,-0.596 0.2,-58.583 0.417,-128.854l0.392,-127.771l95.158,-0.884c98.021,-0.904 98.221,-0.916 112.479,-8.195c21.8,-11.121 37.375,-41.309 34.671,-67.184c-1.558,-14.908 -5.942,-24.079 -26.354,-55.129c-10.467,-15.921 -40.8,-62.296 -67.408,-103.058c-26.609,-40.763 -52.263,-78.379 -57.013,-83.592c-16.887,-18.546 -41.35,-25.687 -65.617,-19.166m-686.387,497.804c-123.633,185.483 -127.092,191.054 -129.188,207.875c-7.312,58.729 66.955,96.983 111.063,57.2c4.592,-4.142 38.917,-54.038 95.792,-139.234l88.637,-132.779l0.425,132.096l0.433,132.096l28.309,2.008c182.066,12.913 276.95,82.579 184.529,135.479c-5.05,2.892 -9.183,5.575 -9.183,5.963c-0,3.187 235.262,-0.384 244.02,-3.7c18.538,-7.017 33.884,-21.525 40.575,-38.35l2.725,-6.859l-264.475,-264.55c-145.462,-145.495 -266.029,-265.929 -267.929,-267.625c-3.437,-3.07 -3.946,-2.337 -125.733,180.38m94.517,277.954c-156.509,8.066 -246.005,58.062 -181.255,101.258c80.238,53.525 336.788,57.183 435.863,6.213c63.992,-32.917 31.592,-74.417 -74.879,-95.905c-54.129,-10.929 -115.504,-14.879 -179.729,-11.566m79.541,55.075c35.079,3.562 52.35,9.041 52.35,16.608c0,21.263 -160.3,23.954 -178.258,2.996c-7.442,-8.692 12.537,-15.754 57.221,-20.238c13.508,-1.354 52.65,-0.995 68.687,0.634m-49.591,14c-5.55,4.1 -0.546,6.791 12.62,6.791c7.317,0 12.313,-0.8 13.692,-2.2c3.608,-3.662 -2.904,-6.983 -13.692,-6.983c-5.52,0 -10.712,0.983 -12.62,2.392" style="fill:#fff;"/><path id="path1" d="M791.925,0.267c-4.133,0.346 -18.029,1.446 -30.888,2.433c-371.033,28.567 -685.35,317.067 -748.72,687.221c-85.434,499.037 283.837,955.737 789.208,976.071c425.125,17.104 796.746,-292.917 856.671,-714.684c70.758,-497.996 -310.642,-944.25 -812.846,-951.054c-25.254,-0.342 -49.292,-0.337 -53.425,0.013m119.825,183.404c378.05,50.916 631.175,395.133 564.488,767.637c-16.892,94.384 -63.667,201.529 -119.13,272.9c-2.304,2.971 -30.92,-25.304 -460.254,-454.721c-432.65,-432.741 -457.621,-458.025 -454.571,-460.395c90.313,-70.159 220.104,-118.859 342.13,-128.375c19.904,-1.546 109.287,0.525 127.337,2.954m-142.042,713.387c250.955,251.259 456.271,457.379 456.267,458.054c-0.008,0.671 -7.767,6.642 -17.246,13.267c-236.221,165.233 -550.662,157.179 -777.633,-19.912c-274.213,-213.95 -332.546,-605.246 -132.838,-891.005c6.613,-9.462 12.734,-17.212 13.596,-17.22c0.863,-0.005 206.9,205.562 457.854,456.816" style="fill:#fb433b;"/></g></svg>