<?xml version="1.0" encoding="UTF-8" standalone="no"?><!DOCTYPE svg PUBLIC "-//W3C//DTD SVG 1.1//EN" "http://www.w3.org/Graphics/SVG/1.1/DTD/svg11.dtd"><svg width="100%" height="100%" viewBox="0 0 383 300" version="1.1" xmlns="http://www.w3.org/2000/svg" xmlns:xlink="http://www.w3.org/1999/xlink" xml:space="preserve" xmlns:serif="http://www.serif.com/" style="fill-rule:evenodd;clip-rule:evenodd;stroke-linejoin:round;stroke-miterlimit:2;"><path d="M234,21c0,-11.59 -9.41,-21 -21,-21l-192,0c-11.59,0 -21,9.41 -21,21c0,11.59 9.41,21 21,21l192,0c11.59,0 21,-9.41 21,-21Z" style="fill:#808080;"/><path d="M153,198l-132,0c-11.59,0 -21,9.41 -21,21c0,11.59 9.41,21 21,21l132,0l0,-42Z" style="fill:#808080;"/><path d="M153,99l-132,0c-11.59,0 -21,9.41 -21,21c0,11.59 9.41,21 21,21l132,0l-0,-42Z" style="fill:#808080;"/><path d="M183,300l200,-115.571l-200,-115.572l0,231.143Z" style="fill:#a9a9a9;fill-rule:nonzero;"/></svg>