<?xml version="1.0" encoding="UTF-8" standalone="no"?><!DOCTYPE svg PUBLIC "-//W3C//DTD SVG 1.1//EN" "http://www.w3.org/Graphics/SVG/1.1/DTD/svg11.dtd"><svg width="100%" height="100%" viewBox="0 0 383 300" version="1.1" xmlns="http://www.w3.org/2000/svg" xmlns:xlink="http://www.w3.org/1999/xlink" xml:space="preserve" xmlns:serif="http://www.serif.com/" style="fill-rule:evenodd;clip-rule:evenodd;stroke-linejoin:round;stroke-miterlimit:2;"><path d="M383,63.405c0,-3.891 -1.78,-7.568 -4.833,-9.982c-3.052,-2.413 -7.041,-3.297 -10.828,-2.399c-25.953,6.153 -76.656,18.174 -93.163,22.088c-3.126,0.741 -5.333,3.533 -5.333,6.745l0,128.958c-6.257,-1.73 -12.985,-2.681 -20,-2.681c-33.137,0 -60,21.012 -60,46.933c0,25.92 26.863,46.933 60,46.933c33.137,0 60,-21.013 60,-46.933l0,-113.621c0,0 49.39,-12.66 67.555,-17.317c3.885,-0.996 6.602,-4.497 6.602,-8.507l0,-50.217Z" style="fill:#808080;"/><path d="M169.714,216l-148.714,0c-11.59,0 -21,9.41 -21,21c0,11.59 9.41,21 21,21l137.535,0c-0.127,-1.636 -0.192,-3.281 -0.192,-4.933c0,-13.123 4.084,-25.859 11.371,-37.067Z" style="fill:#a9a9a9;"/><path d="M234,129c0,-11.59 -9.41,-21 -21,-21l-192,0c-11.59,0 -21,9.41 -21,21c0,11.59 9.41,21 21,21l192,0c11.59,0 21,-9.41 21,-21Z" style="fill:#a9a9a9;"/><path d="M234,21c0,-11.59 -9.41,-21 -21,-21l-192,0c-11.59,0 -21,9.41 -21,21c0,11.59 9.41,21 21,21l192,0c11.59,0 21,-9.41 21,-21Z" style="fill:#a9a9a9;"/></svg>