<?xml version="1.0" encoding="UTF-8" standalone="no"?><!DOCTYPE svg PUBLIC "-//W3C//DTD SVG 1.1//EN" "http://www.w3.org/Graphics/SVG/1.1/DTD/svg11.dtd"><svg width="100%" height="100%" viewBox="0 0 383 300" version="1.1" xmlns="http://www.w3.org/2000/svg" xmlns:xlink="http://www.w3.org/1999/xlink" xml:space="preserve" xmlns:serif="http://www.serif.com/" style="fill-rule:evenodd;clip-rule:evenodd;stroke-linejoin:round;stroke-miterlimit:2;"><path d="M341.5,150c0,12.757 -10.335,23.084 -23.077,23.084l-103.846,0l0,103.847c0,12.757 -10.334,23.069 -23.077,23.069c-12.743,-0 -23.077,-10.312 -23.077,-23.069l0,-103.847l-103.846,-0c-12.742,-0 -23.077,-10.327 -23.077,-23.084c0,-12.757 10.335,-23.069 23.077,-23.069l103.846,-0l0,-103.847c0,-12.757 10.334,-23.084 23.077,-23.084c12.743,-0 23.077,10.327 23.077,23.084l0,103.847l103.846,-0c12.765,-0.008 23.077,10.305 23.077,23.069Z" style="fill:#808080;fill-rule:nonzero;"/></svg>