<?xml version="1.0" encoding="UTF-8" standalone="no"?><!DOCTYPE svg PUBLIC "-//W3C//DTD SVG 1.1//EN" "http://www.w3.org/Graphics/SVG/1.1/DTD/svg11.dtd"><svg width="100%" height="100%" viewBox="0 0 300 300" version="1.1" xmlns="http://www.w3.org/2000/svg" xmlns:xlink="http://www.w3.org/1999/xlink" xml:space="preserve" xmlns:serif="http://www.serif.com/" style="fill-rule:evenodd;clip-rule:evenodd;stroke-linejoin:round;stroke-miterlimit:2;"><path d="M300,63.683c0,36.094 -28.795,64.286 -64.285,64.286c-17.344,0 -33.082,-6.228 -44.599,-17.41l-63.013,31.472c0.334,2.612 -0.134,4.688 -0.134,7.969c0,2.679 0.468,4.755 0.134,7.969l63.013,31.472c11.517,-11.182 27.255,-18.013 44.599,-18.013c35.49,0 64.285,28.192 64.285,64.287c0,35.49 -28.795,64.285 -64.285,64.285c-36.095,0 -64.287,-28.795 -64.287,-64.285c0,-3.282 0.135,-5.358 0.469,-7.97l-63.013,-31.473c-11.517,11.184 -27.255,18.013 -44.599,18.013c-35.504,0 -64.285,-28.794 -64.285,-64.285c0,-36.093 28.781,-64.285 64.285,-64.285c17.344,-0 33.082,6.829 44.599,18.013l63.013,-31.473c-0.334,-3.215 -0.469,-5.291 -0.469,-7.97c0,-35.504 28.192,-64.285 64.287,-64.285c35.49,0 64.285,28.781 64.285,64.285l0,-0.602Zm-236.317,107.142c12.456,0 21.429,-8.972 21.429,-21.428c0,-11.25 -8.973,-21.428 -21.429,-21.428c-11.23,0 -21.428,10.178 -21.428,21.428c-0,12.456 10.198,21.428 21.428,21.428Zm172.032,-128.57c-11.854,-0 -21.43,10.178 -21.43,21.428c0,12.456 9.576,21.429 21.43,21.429c11.852,-0 21.428,-8.973 21.428,-21.429c-0,-11.25 -9.576,-21.428 -21.428,-21.428Zm-0,214.888c11.852,-0 21.428,-9.576 21.428,-21.428c-0,-11.854 -9.576,-21.43 -21.428,-21.43c-11.854,0 -21.43,9.576 -21.43,21.43c0,11.852 9.576,21.428 21.43,21.428Z" style="fill:#808080;fill-rule:nonzero;"/></svg>