<?xml version="1.0" encoding="UTF-8" standalone="no"?><!DOCTYPE svg PUBLIC "-//W3C//DTD SVG 1.1//EN" "http://www.w3.org/Graphics/SVG/1.1/DTD/svg11.dtd"><svg width="100%" height="100%" viewBox="0 0 383 300" version="1.1" xmlns="http://www.w3.org/2000/svg" xmlns:xlink="http://www.w3.org/1999/xlink" xml:space="preserve" xmlns:serif="http://www.serif.com/" style="fill-rule:evenodd;clip-rule:evenodd;stroke-linejoin:round;stroke-miterlimit:2;"><g><circle cx="60" cy="206.341" r="30" style="fill:#a9a9a9;"/><path d="M0,280.522l0,19.819l120,0l0,-19.819c0,-19.417 -17.264,-35.181 -38.527,-35.181l-42.946,0c-21.263,0 -38.527,15.764 -38.527,35.181Z" style="fill:#a9a9a9;"/></g><g><circle cx="191.5" cy="206" r="30" style="fill:#a9a9a9;"/><path d="M131.5,280.18l0,19.82l120,0l0,-19.82c0,-19.416 -17.264,-35.18 -38.527,-35.18l-42.946,0c-21.263,0 -38.527,15.764 -38.527,35.18Z" style="fill:#a9a9a9;"/></g><g><circle cx="323" cy="206" r="30" style="fill:#a9a9a9;"/><path d="M263,280.18l0,19.82l120,0l0,-19.82c0,-19.416 -17.264,-35.18 -38.527,-35.18l-42.946,0c-21.263,0 -38.527,15.764 -38.527,35.18Z" style="fill:#a9a9a9;"/></g><path d="M173.605,0c6.209,0 12.213,0.884 17.899,2.525c31.666,9.164 51.862,41.326 45.088,74.35l-31.759,-0.007c5.834,-14.942 0.439,-32.162 -13.329,-40.895c-5.184,-3.288 -11.322,-5.198 -17.899,-5.198l-60.886,0.015c-18.485,-0 -33.519,15.034 -33.519,33.519c0,18.485 15.034,33.519 33.519,33.519l18.768,-0c5.148,11.922 12.948,22.424 22.658,30.789l-41.426,0c-35.513,0 -64.301,-28.788 -64.301,-64.301c-0,-35.514 28.788,-64.302 64.301,-64.302l60.886,-0.014Zm96.683,-0l-41.425,-0c9.709,8.351 17.509,18.867 22.664,30.782l18.754,0c18.485,0 33.519,15.035 33.519,33.52c-0,18.485 -15.034,33.519 -33.519,33.519l-60.886,-0c-18.542,-0 -33.52,-15.133 -33.52,-33.519c0,-4.286 0.821,-8.797 2.292,-12.574l-31.759,-0.007c-0.862,4.201 -1.315,8.118 -1.315,12.574c-0,11.484 3.034,23.074 9.419,33.519c8.281,13.528 21.413,23.76 36.984,28.258c5.686,1.64 11.69,2.524 17.899,2.524l60.878,-0.007c35.521,0.007 64.309,-28.781 64.309,-64.294c-0.007,-35.507 -28.788,-64.288 -64.294,-64.295Z" style="fill:#808080;fill-rule:nonzero;"/></svg>