<?xml version="1.0" encoding="UTF-8" standalone="no"?><!DOCTYPE svg PUBLIC "-//W3C//DTD SVG 1.1//EN" "http://www.w3.org/Graphics/SVG/1.1/DTD/svg11.dtd"><svg width="100%" height="100%" viewBox="0 0 383 300" version="1.1" xmlns="http://www.w3.org/2000/svg" xmlns:xlink="http://www.w3.org/1999/xlink" xml:space="preserve" xmlns:serif="http://www.serif.com/" style="fill-rule:evenodd;clip-rule:evenodd;stroke-linejoin:round;stroke-miterlimit:2;"><circle cx="131" cy="70" r="70" style="fill:#a9a9a9;"/><path d="M0,255.316l0,44.684l262,0l0,-44.684c0,-43.776 -37.692,-79.316 -84.117,-79.316l-93.766,0c-46.425,0 -84.117,35.54 -84.117,79.316Z" style="fill:#a9a9a9;fill-opacity:0;"/><path d="M177.842,300c-12.016,-13.276 -18.999,-29.774 -18.999,-46.933c-0,-29.919 21.229,-57.828 53.263,-70.192c-10.452,-4.426 -22.037,-6.875 -34.223,-6.875l-93.766,0c-46.425,0 -84.117,35.54 -84.117,79.316l0,44.684l177.842,0Z" style="fill:#a9a9a9;"/><path d="M383,63.405c-0,-3.891 -1.78,-7.568 -4.833,-9.982c-3.052,-2.413 -7.041,-3.297 -10.828,-2.399c-25.953,6.153 -76.656,18.174 -93.163,22.088c-3.126,0.741 -5.333,3.533 -5.333,6.745l-0,128.958c-6.257,-1.73 -12.985,-2.681 -20,-2.681c-33.137,-0 -60,21.012 -60,46.933c-0,25.92 26.863,46.933 60,46.933c33.137,0 60,-21.013 60,-46.933l-0,-113.621c-0,-0 49.39,-12.66 67.555,-17.317c3.885,-0.996 6.602,-4.497 6.602,-8.507l-0,-50.217Z" style="fill:#808080;"/></svg>