<?xml version="1.0" encoding="UTF-8" standalone="no"?><!DOCTYPE svg PUBLIC "-//W3C//DTD SVG 1.1//EN" "http://www.w3.org/Graphics/SVG/1.1/DTD/svg11.dtd"><svg width="100%" height="100%" viewBox="0 0 225 225" version="1.1" xmlns="http://www.w3.org/2000/svg" xmlns:xlink="http://www.w3.org/1999/xlink" xml:space="preserve" xmlns:serif="http://www.serif.com/" style="fill-rule:evenodd;clip-rule:evenodd;stroke-linejoin:round;stroke-miterlimit:2;"><g><path d="M6.718,108.497l46.998,-0c3.701,-0 6.719,2.869 6.719,6.449l0,103.605c0,3.552 -2.99,6.449 -6.719,6.449l-46.998,0c-3.7,0 -6.718,-2.869 -6.718,-6.449l0,-103.632c0.028,-3.553 3.018,-6.422 6.718,-6.422Z" style="fill:#393bac;"/><path d="M141.364,0l0.314,0c12.553,0.22 16.566,11.369 16.566,11.369c0,0 10.732,20.334 0.712,45.202c-8.454,21.017 -10.191,22.711 -10.191,22.711c0,0 -2.732,3.799 5.921,3.635c0,-0 52.834,-0.218 54.656,-0.218c3.9,-0 16.34,3.416 15.629,18.638c-0.513,11.26 -7.8,15.194 -11.53,16.479c-0.484,0.164 -0.74,0.684 -0.54,1.148c0.085,0.191 0.227,0.355 0.426,0.465c3.815,2.132 11.614,7.515 11.444,15.769c-0.227,10.002 -4.413,13.691 -13.123,15.987c-0.484,0.109 -0.798,0.601 -0.656,1.066c0.058,0.246 0.229,0.437 0.429,0.547c3.301,1.803 8.966,6.203 8.624,15.112c-0.341,9.074 -7.173,12.27 -10.902,13.364c-0.484,0.137 -0.769,0.628 -0.626,1.093c0.056,0.192 0.199,0.383 0.369,0.492c2.363,1.558 5.864,5.083 5.694,12.326c-0.086,3.826 -1.424,6.613 -3.103,8.609c-2.647,3.142 -6.803,4.782 -11.017,4.809l-117.223,0.219c-0.029,-0.028 -6.377,-0 -6.377,-8.172l-0,-74.225c0.028,-18.283 5.351,-36.184 15.4,-51.707c6.12,-9.401 19.841,-24.459 27.526,-32.248c1.709,-1.749 7.914,-6.887 7.914,-9.702c0,-3.608 0.428,-9.428 0.57,-20.278c0.086,-6.886 5.921,-12.544 13.094,-12.49Z" style="fill:#393bac;"/></g></svg>