<?xml version="1.0" encoding="UTF-8" standalone="no"?><!DOCTYPE svg PUBLIC "-//W3C//DTD SVG 1.1//EN" "http://www.w3.org/Graphics/SVG/1.1/DTD/svg11.dtd"><svg width="100%" height="100%" viewBox="0 0 672 699" version="1.1" xmlns="http://www.w3.org/2000/svg" xmlns:xlink="http://www.w3.org/1999/xlink" xml:space="preserve" xmlns:serif="http://www.serif.com/" style="fill-rule:evenodd;clip-rule:evenodd;stroke-linejoin:round;stroke-miterlimit:2;"><path d="M20.056,336.739l140.3,-0c11.047,-0 20.057,8.906 20.057,20.018l0,321.557c0,11.025 -8.925,20.015 -20.057,20.015l-140.3,-0c-11.047,-0 -20.056,-8.906 -20.056,-20.015l0,-321.641c0.084,-11.028 9.009,-19.934 20.056,-19.934Z" style="fill:#7274fc;"/><path d="M422.006,0.001l0.935,0c37.475,0.681 49.456,35.285 49.456,35.285c-0,-0 32.037,63.109 2.125,140.293c-25.238,65.228 -30.422,70.488 -30.422,70.488c-0,0 -8.156,11.79 17.675,11.281c-0,0 157.722,-0.678 163.162,-0.678c11.641,0 48.776,10.603 46.654,57.847c-1.532,34.947 -23.285,47.159 -34.419,51.147c-1.444,0.509 -2.21,2.122 -1.613,3.562c0.254,0.594 0.678,1.103 1.272,1.444c11.388,6.616 34.672,23.325 34.163,48.941c-0.678,31.043 -13.172,42.493 -39.175,49.618c-1.444,0.341 -2.382,1.866 -1.957,3.31c0.172,0.762 0.682,1.356 1.279,1.697c9.856,5.596 26.765,19.253 25.746,46.903c-1.018,28.162 -21.415,38.084 -32.546,41.478c-1.444,0.425 -2.294,1.95 -1.869,3.394c0.169,0.593 0.594,1.187 1.103,1.525c7.053,4.837 17.506,15.778 16.997,38.256c-0.256,11.875 -4.25,20.525 -9.263,26.719c-7.903,9.753 -20.309,14.843 -32.887,14.928l-349.941,0.678c-0.084,-0.085 -19.037,0 -19.037,-25.363l0,-230.372c0.084,-56.743 15.975,-112.303 45.975,-160.481c18.268,-29.178 59.228,-75.912 82.172,-100.087c5.1,-5.428 23.625,-21.375 23.625,-30.113c0,-11.197 1.275,-29.262 1.7,-62.937c0.256,-21.372 17.675,-38.932 39.09,-38.763Z" style="fill:#7274fc;"/></svg>