<?xml version="1.0" encoding="UTF-8" standalone="no"?><!DOCTYPE svg PUBLIC "-//W3C//DTD SVG 1.1//EN" "http://www.w3.org/Graphics/SVG/1.1/DTD/svg11.dtd"><svg width="100%" height="100%" viewBox="0 0 400 400" version="1.1" xmlns="http://www.w3.org/2000/svg" xmlns:xlink="http://www.w3.org/1999/xlink" xml:space="preserve" xmlns:serif="http://www.serif.com/" style="fill-rule:evenodd;clip-rule:evenodd;stroke-linejoin:round;stroke-miterlimit:2;"><g><path id="path0" d="M206.69,63.195c-14.263,2.4 -27.227,12.287 -33.271,25.375c-0.763,1.651 -1.387,3.181 -1.387,3.398c-0,0.216 -0.947,0.701 -2.104,1.077c-6.201,2.015 -6.311,2.243 -6.311,13.265c0,11.987 0.212,12.37 8.776,15.964c5.251,2.203 5.56,1.884 3.861,-3.978c-8.918,-30.788 21.048,-58.901 51.093,-47.932c19.126,6.984 30.224,28.62 24.383,47.538c-2.12,6.867 -0.822,7.785 5.576,3.939c6.763,-4.064 6.881,-4.336 6.881,-15.786c-0,-10.999 0.034,-10.927 -6.311,-13.004c-1.157,-0.379 -2.103,-0.867 -2.103,-1.083c-0,-0.919 -2.965,-6.707 -4.978,-9.716c-9.41,-14.071 -27.439,-21.861 -44.105,-19.057m0.451,10.623c-27.193,6.082 -36.597,39.126 -16.554,58.168c21.482,20.411 57.107,5.291 57.319,-24.327c0.157,-21.737 -20.016,-38.483 -40.765,-33.841m72.281,25.665c-9.541,2.565 -14.621,13.302 -10.449,22.081c0.609,1.281 4.645,7.696 8.968,14.255c4.323,6.558 7.73,11.925 7.571,11.924c-22.362,-0.068 -106.669,0.074 -106.669,0.18c0,0.275 94.159,94.348 94.165,94.08c0.003,-0.143 0.048,-14.06 0.1,-30.925l0.094,-30.665l22.838,-0.212c23.525,-0.217 23.573,-0.22 26.995,-1.967c5.232,-2.669 8.97,-9.914 8.321,-16.124c-0.374,-3.578 -1.426,-5.779 -6.325,-13.231c-2.512,-3.821 -9.792,-14.951 -16.178,-24.734c-6.386,-9.783 -12.543,-18.811 -13.683,-20.062c-4.053,-4.451 -9.924,-6.165 -15.748,-4.6m-164.733,119.473c-29.672,44.516 -30.502,45.853 -31.005,49.89c-1.755,14.095 16.069,23.276 26.655,13.728c1.102,-0.994 9.34,-12.969 22.99,-33.416l21.273,-31.867l0.102,31.703l0.104,31.703l6.794,0.482c43.696,3.099 66.468,19.819 44.287,32.515c-1.212,0.694 -2.204,1.338 -2.204,1.431c-0,0.765 56.463,-0.092 58.565,-0.888c4.449,-1.684 8.132,-5.166 9.738,-9.204l0.654,-1.646l-63.474,-63.492c-34.911,-34.919 -63.847,-63.823 -64.303,-64.23c-0.825,-0.737 -0.947,-0.561 -30.176,43.291m22.684,66.709c-37.562,1.936 -59.041,13.935 -43.501,24.302c19.257,12.846 80.829,13.724 104.607,1.491c15.358,-7.9 7.582,-17.86 -17.971,-23.017c-12.991,-2.623 -27.721,-3.571 -43.135,-2.776m19.09,13.218c8.419,0.855 12.564,2.17 12.564,3.986c-0,5.103 -38.472,5.749 -42.782,0.719c-1.786,-2.086 3.009,-3.781 13.733,-4.857c3.242,-0.325 12.636,-0.239 16.485,0.152m-11.902,3.36c-1.332,0.984 -0.131,1.63 3.029,1.63c1.756,0 2.955,-0.192 3.286,-0.528c0.866,-0.879 -0.697,-1.676 -3.286,-1.676c-1.325,-0 -2.571,0.236 -3.029,0.574" style="fill:#040404;"/><path id="path1" d="M190.062,0.064c-0.992,0.083 -4.327,0.347 -7.413,0.584c-89.048,6.856 -164.484,76.096 -179.693,164.933c-20.504,119.769 68.121,229.377 189.41,234.257c102.03,4.105 191.219,-70.3 205.601,-171.524c16.982,-119.519 -74.554,-226.62 -195.083,-228.253c-6.061,-0.082 -11.83,-0.081 -12.822,0.003m28.758,44.017c90.732,12.22 151.482,94.832 135.477,184.233c-4.054,22.652 -15.28,48.367 -28.591,65.496c-0.553,0.713 -7.421,-6.073 -110.461,-109.133c-103.836,-103.858 -109.829,-109.926 -109.097,-110.495c21.675,-16.838 52.825,-28.526 82.111,-30.81c4.777,-0.371 26.229,0.126 30.561,0.709m-34.09,171.213c60.229,60.302 109.505,109.771 109.504,109.933c-0.002,0.161 -1.864,1.594 -4.139,3.184c-56.693,39.656 -132.159,37.723 -186.632,-4.779c-65.811,-51.348 -79.811,-145.259 -31.881,-213.841c1.587,-2.271 3.056,-4.131 3.263,-4.133c0.207,-0.001 49.656,49.335 109.885,109.636" style="fill:#fb433b;"/></g></svg>